<svg width="338" height="455" viewBox="0 0 338 455" fill="none" xmlns="http://www.w3.org/2000/svg">
<path fill-rule="evenodd" clip-rule="evenodd" d="M157.884 454.483L0 76.9111L147.746 15.1304C192.069 -3.40373 228.727 -4.9102 257.718 10.611C286.48 25.5851 308.527 51.4035 323.858 88.0663C338.96 124.182 341.854 158.009 332.541 189.547C322.999 220.538 296.067 245.301 251.743 263.835L196.749 286.832L250.635 415.698L157.884 454.483Z" fill="#41B883"/>
<path d="M75.1626 79.6499H113.344L180.163 187.018L246.981 79.6499H285.163L180.163 249.65L75.1626 79.6499ZM157.893 79.6499L180.163 115.439L202.432 79.6499H240.948L180.163 178.071L119.377 79.6499H157.893Z" fill="white"/>
</svg>
